<svg width="572" height="399" viewBox="0 0 572 399" fill="none" xmlns="http://www.w3.org/2000/svg">
<path d="M568.001 3.00074C560.857 32.5817 545.883 57.3597 520.001 74.0007C506.344 82.1807 492.848 83.4507 477.341 83.4487C475.601 83.4597 302.713 84.6087 298.489 84.7467C295.888 84.8317 295.713 84.8287 292.909 85.1237C274.212 89.3557 258.086 98.0527 247.001 114.001C246.025 115.403 246.143 115.403 245.146 116.833C241.83 121.81 226.304 163.866 225.58 166.048C220.388 181.717 150.001 395.001 148.001 397.001C130.352 398.63 114.111 394.743 100.251 383.314C90.8277 374.463 84.4447 361.628 83.3137 348.751C83.1527 347.104 83.1527 347.104 82.9887 345.423C82.6437 329.663 88.1507 315.232 93.0637 300.501C94.1857 297.109 161.68 85.2977 162.001 84.0007C141.73 83.9537 56.5487 83.8167 48.3467 83.8127C44.0027 83.8097 2.00067 84.0207 2.00067 83.0007C1.34067 82.6707 2.58567 74.0147 3.13967 70.7707C7.02167 48.8187 18.3057 29.3457 36.4817 16.2077C54.0857 4.29374 72.9337 2.54674 93.5077 2.59574C95.5527 2.58874 565.773 1.88674 568.001 3.00074Z" fill="url(#paint0_linear_554_180)"/>
<path fill-rule="evenodd" clip-rule="evenodd" d="M504 120.999C480.364 120.954 299.641 121.293 286.5 127.718C267.404 138.134 256.02 153.186 249.383 173.669C248.95 175.006 178.243 388.059 178 389.999C179.673 389.999 180.413 389.999 181.117 389.838C181.674 389.711 182.208 389.482 183.166 389.072L185.691 387.761L188.528 386.291L191.562 384.687C201.309 379.562 210.806 374.136 220.093 368.22L222 366.999C229.569 362.182 236.798 357.032 243.848 351.491C244.898 350.66 245.949 349.829 247 348.999C266.079 334.192 284.763 315.251 294.899 293.001L295.848 290.847C299.94 281.579 328.855 198.42 328.855 198.42C340.325 198.483 401.585 195.286 403.781 195.292C424.984 195.453 442.885 194.248 461.625 183.249C481.028 170.845 497.212 150.407 502.536 127.715L503.063 125.297C503.377 123.865 503.689 122.432 504 120.999Z" fill="url(#paint1_linear_554_180)"/>
<defs>
<linearGradient id="paint0_linear_554_180" x1="568.001" y1="199.615" x2="75.0007" y2="211" gradientUnits="userSpaceOnUse">
<stop stop-color="#81C773"/>
<stop offset="0.909011" stop-color="#1775D4"/>
</linearGradient>
<linearGradient id="paint1_linear_554_180" x1="504" y1="255.371" x2="178" y2="255.371" gradientUnits="userSpaceOnUse">
<stop stop-color="#86C969"/>
<stop offset="1" stop-color="#32887A"/>
</linearGradient>
</defs>
</svg>
